<svg width="66" height="66" viewBox="0 0 66 66" fill="none" xmlns="http://www.w3.org/2000/svg">
<rect y="33" width="6" height="6" fill="black"/>
<rect x="6" y="27" width="6" height="6" fill="black"/>
<rect x="12" y="33" width="6" height="6" fill="black"/>
<rect x="18" y="39" width="6" height="6" fill="black"/>
<rect x="24" y="36" width="6" height="6" fill="black"/>
<rect x="30" y="30" width="6" height="6" fill="black"/>
<rect x="36" y="24" width="6" height="6" fill="black"/>
<rect x="42" y="18" width="6" height="6" fill="black"/>
<rect x="48" y="12" width="6" height="6" fill="black"/>
<rect x="54" y="9" width="3" height="9" fill="black"/>
<rect x="6" y="33" width="6" height="12" fill="black"/>
<rect x="12" y="39" width="6" height="12" fill="black"/>
<rect x="18" y="45" width="6" height="12" fill="black"/>
<rect x="24" y="42" width="6" height="12" fill="black"/>
<rect x="30" y="36" width="6" height="12" fill="black"/>
<rect x="36" y="30" width="6" height="12" fill="black"/>
<rect x="42" y="24" width="6" height="12" fill="black"/>
<rect x="48" y="18" width="6" height="12" fill="black"/>
<rect x="54" y="9" width="6" height="15" fill="black"/>
<rect x="24" y="54" width="3" height="3" fill="black"/>
<rect x="21" y="57" width="3" height="3" fill="black"/>
<rect x="15" y="51" width="3" height="3" fill="black"/>
<rect x="9" y="45" width="3" height="3" fill="black"/>
<rect x="3" y="39" width="3" height="3" fill="black"/>
<rect x="12" y="30" width="3" height="3" fill="black"/>
<rect x="3" y="30" width="3" height="3" fill="black"/>
<rect x="18" y="36" width="3" height="3" fill="black"/>
<rect x="27" y="33" width="3" height="3" fill="black"/>
<rect x="33" y="27" width="3" height="3" fill="black"/>
<rect x="39" y="21" width="3" height="3" fill="black"/>
<rect x="45" y="15" width="3" height="3" fill="black"/>
<rect x="60" y="9" width="3" height="3" fill="black"/>
<rect x="51" y="9" width="3" height="3" fill="black"/>
<rect x="54" y="6" width="6" height="3" fill="black"/>
<rect x="30" y="48" width="3" height="3" fill="black"/>
<rect x="36" y="42" width="3" height="3" fill="black"/>
<rect x="42" y="36" width="3" height="3" fill="black"/>
<rect x="48" y="30" width="3" height="3" fill="black"/>
<rect x="54" y="24" width="3" height="3" fill="black"/>
<rect x="60" y="12" width="3" height="9" fill="black"/>
<rect x="63" y="12" width="3" height="6" fill="black"/>
</svg>
