<svg width="33" height="33" viewBox="0 0 33 33" fill="none" xmlns="http://www.w3.org/2000/svg">
<g clip-path="url(#clip0_53_28)">
<rect x="33" y="18" width="3" height="3" transform="rotate(-180 33 18)" fill="black"/>
<rect x="30" y="21" width="3" height="3" transform="rotate(-180 30 21)" fill="black"/>
<rect x="30" y="15" width="3" height="3" transform="rotate(-180 30 15)" fill="black"/>
<rect x="27" y="15" width="3" height="3" transform="rotate(-180 27 15)" fill="black"/>
<rect x="24" y="12" width="3" height="3" transform="rotate(-180 24 12)" fill="black"/>
<rect x="21" y="12" width="3" height="3" transform="rotate(-180 21 12)" fill="black"/>
<rect x="18" y="9" width="3" height="3" transform="rotate(-180 18 9)" fill="black"/>
<rect x="15" y="9" width="3" height="3" transform="rotate(-180 15 9)" fill="black"/>
<rect x="12" y="6" width="3" height="3" transform="rotate(-180 12 6)" fill="black"/>
<rect x="9" y="6" width="3" height="3" transform="rotate(-180 9 6)" fill="black"/>
<rect x="6" y="3" width="3" height="3" transform="rotate(-180 6 3)" fill="black"/>
<rect x="3" y="3" width="3" height="3" transform="rotate(-180 3 3)" fill="black"/>
<rect x="27" y="21" width="3" height="3" transform="rotate(-180 27 21)" fill="black"/>
<rect x="24" y="24" width="3" height="3" transform="rotate(-180 24 24)" fill="black"/>
<rect x="21" y="24" width="3" height="3" transform="rotate(-180 21 24)" fill="black"/>
<rect x="18" y="27" width="3" height="3" transform="rotate(-180 18 27)" fill="black"/>
<rect x="15" y="27" width="3" height="3" transform="rotate(-180 15 27)" fill="black"/>
<rect x="12" y="30" width="3" height="3" transform="rotate(-180 12 30)" fill="black"/>
<rect x="9" y="30" width="3" height="3" transform="rotate(-180 9 30)" fill="black"/>
<rect x="6" y="33" width="3" height="3" transform="rotate(-180 6 33)" fill="black"/>
<rect x="3" y="33" width="3" height="3" transform="rotate(-180 3 33)" fill="black"/>
</g>
<defs>
<clipPath id="clip0_53_28">
<rect width="33" height="33" fill="white" transform="matrix(-1 0 0 -1 33 33)"/>
</clipPath>
</defs>
</svg>
