<svg width="33" height="33" viewBox="0 0 33 33" fill="none" xmlns="http://www.w3.org/2000/svg">
<g clip-path="url(#clip0_53_4)">
<rect y="15" width="3" height="3" fill="black"/>
<rect x="3" y="12" width="3" height="3" fill="black"/>
<rect x="3" y="18" width="3" height="3" fill="black"/>
<rect x="6" y="18" width="3" height="3" fill="black"/>
<rect x="9" y="21" width="3" height="3" fill="black"/>
<rect x="12" y="21" width="3" height="3" fill="black"/>
<rect x="15" y="24" width="3" height="3" fill="black"/>
<rect x="18" y="24" width="3" height="3" fill="black"/>
<rect x="21" y="27" width="3" height="3" fill="black"/>
<rect x="24" y="27" width="3" height="3" fill="black"/>
<rect x="27" y="30" width="3" height="3" fill="black"/>
<rect x="30" y="30" width="3" height="3" fill="black"/>
<rect x="6" y="12" width="3" height="3" fill="black"/>
<rect x="9" y="9" width="3" height="3" fill="black"/>
<rect x="12" y="9" width="3" height="3" fill="black"/>
<rect x="15" y="6" width="3" height="3" fill="black"/>
<rect x="18" y="6" width="3" height="3" fill="black"/>
<rect x="21" y="3" width="3" height="3" fill="black"/>
<rect x="24" y="3" width="3" height="3" fill="black"/>
<rect x="27" width="3" height="3" fill="black"/>
<rect x="30" width="3" height="3" fill="black"/>
</g>
<defs>
<clipPath id="clip0_53_4">
<rect width="33" height="33" fill="white"/>
</clipPath>
</defs>
</svg>
