<svg width="33" height="33" viewBox="0 0 33 33" fill="none" xmlns="http://www.w3.org/2000/svg">
<rect y="15" width="3" height="3" fill="black"/>
<rect x="3" y="12" width="3" height="3" fill="black"/>
<rect x="3" y="18" width="3" height="3" fill="black"/>
<rect x="15" y="12" width="3" height="3" fill="black"/>
<rect x="18" y="15" width="3" height="3" fill="black"/>
<rect x="18" y="12" width="3" height="3" fill="black"/>
<rect x="12" y="15" width="3" height="3" fill="black"/>
<rect x="12" y="12" width="3" height="3" fill="black"/>
<rect x="12" y="18" width="3" height="3" fill="black"/>
<rect x="15" y="18" width="3" height="3" fill="black"/>
<rect x="18" y="18" width="3" height="3" fill="black"/>
<rect x="6" y="21" width="6" height="3" fill="black"/>
<rect x="6" y="9" width="6" height="3" fill="black"/>
<rect x="12" y="6" width="9" height="3" fill="black"/>
<rect x="12" y="24" width="9" height="3" fill="black"/>
<rect x="30" y="15" width="3" height="3" fill="black"/>
<rect x="27" y="18" width="3" height="3" fill="black"/>
<rect x="21" y="21" width="6" height="3" fill="black"/>
<rect x="27" y="12" width="3" height="3" fill="black"/>
<rect x="21" y="9" width="6" height="3" fill="black"/>
</svg>
