<svg width="33" height="33" viewBox="0 0 33 33" fill="none" xmlns="http://www.w3.org/2000/svg">
<g clip-path="url(#clip0_11_2)">
<rect x="3" y="9" width="3" height="6" fill="#F4B400"/>
<rect x="3" y="15" width="3" height="9" fill="#F4B400"/>
<rect x="3" y="6" width="9" height="3" fill="#DB4437"/>
<rect x="12" y="6" width="3" height="3" fill="#DB4437"/>
<rect x="21" y="24" width="3" height="3" fill="#4285F4"/>
<rect x="6" y="9" width="3" height="3" fill="#DB4437"/>
<rect x="6" y="12" width="3" height="3" fill="#F4B400"/>
<rect x="12" y="3" width="3" height="3" fill="#DB4437"/>
<rect x="14" y="3" width="3" height="3" fill="#DB4437"/>
<rect x="15" y="3" width="3" height="3" fill="#DB4437"/>
<rect x="18" y="3" width="3" height="3" fill="#DB4437"/>
<rect x="18" y="6" width="3" height="3" fill="#DB4437"/>
<rect x="21" y="6" width="3" height="3" fill="#DB4437"/>
<rect x="18" y="24" width="3" height="3" fill="#0F9D58"/>
<rect x="6" y="21" width="3" height="3" fill="#0F9D58"/>
<rect x="6" y="18" width="3" height="3" fill="#F4B400"/>
<rect y="12" width="3" height="9" fill="#F4B400"/>
<rect x="3" y="24" width="12" height="3" fill="#0F9D58"/>
<rect x="6" y="27" width="18" height="3" fill="#0F9D58"/>
<rect x="6" y="3" width="6" height="3" fill="#DB4437"/>
<rect x="21" y="3" width="6" height="3" fill="#DB4437"/>
<rect x="12" y="30" width="9" height="3" fill="#0F9D58"/>
<rect x="12" width="9" height="3" fill="#DB4437"/>
<rect x="18" y="15" width="15" height="6" fill="#4285F4"/>
<rect x="24" y="21" width="6" height="6" fill="#4285F4"/>
<rect x="24" y="27" width="3" height="3" fill="#4285F4"/>
</g>
<defs>
<clipPath id="clip0_11_2">
<rect width="33" height="33" fill="white"/>
</clipPath>
</defs>
</svg>
