<svg width="33" height="33" viewBox="0 0 33 33" fill="none" xmlns="http://www.w3.org/2000/svg">
<g clip-path="url(#clip0_26_570)">
<rect width="3" height="6" fill="#991B1B"/>
<rect x="3" y="6" width="3" height="9" fill="#991B1B"/>
<rect y="15" width="3" height="9" fill="#991B1B"/>
<rect x="3" y="24" width="3" height="9" fill="#991B1B"/>
<rect x="3" width="3" height="6" fill="#991B1B"/>
<rect x="6" y="6" width="3" height="9" fill="#991B1B"/>
<rect x="3" y="15" width="3" height="9" fill="#991B1B"/>
<rect x="6" y="24" width="3" height="9" fill="#991B1B"/>
<rect x="6" width="3" height="6" fill="#EA580C"/>
<rect x="9" y="6" width="3" height="9" fill="#EA580C"/>
<rect x="6" y="15" width="3" height="9" fill="#EA580C"/>
<rect x="9" y="24" width="3" height="9" fill="#EA580C"/>
<rect x="9" width="3" height="6" fill="#EA580C"/>
<rect x="12" y="6" width="3" height="9" fill="#EA580C"/>
<rect x="9" y="15" width="3" height="9" fill="#EA580C"/>
<rect x="12" y="24" width="3" height="9" fill="#EA580C"/>
<rect x="12" width="3" height="6" fill="#FACC15"/>
<rect x="15" y="6" width="3" height="9" fill="#FACC15"/>
<rect x="12" y="15" width="3" height="9" fill="#FACC15"/>
<rect x="15" y="24" width="3" height="9" fill="#FACC15"/>
<rect x="15" width="3" height="6" fill="#FACC15"/>
<rect x="18" y="6" width="3" height="9" fill="#FACC15"/>
<rect x="15" y="15" width="3" height="9" fill="#FACC15"/>
<rect x="18" y="24" width="3" height="9" fill="#FACC15"/>
<rect x="18" width="3" height="6" fill="#16A34A"/>
<rect x="21" y="6" width="3" height="9" fill="#16A34A"/>
<rect x="18" y="15" width="3" height="9" fill="#16A34A"/>
<rect x="21" y="24" width="3" height="9" fill="#16A34A"/>
<rect x="21" width="3" height="6" fill="#16A34A"/>
<rect x="24" y="6" width="3" height="9" fill="#16A34A"/>
<rect x="21" y="15" width="3" height="9" fill="#16A34A"/>
<rect x="24" y="24" width="3" height="9" fill="#16A34A"/>
<rect x="24" width="3" height="6" fill="#155E75"/>
<rect x="27" y="6" width="3" height="9" fill="#155E75"/>
<rect x="24" y="15" width="3" height="9" fill="#155E75"/>
<rect x="27" y="24" width="3" height="9" fill="#155E75"/>
<rect x="27" width="3" height="6" fill="#155E75"/>
<rect x="30" y="6" width="3" height="9" fill="#155E75"/>
<rect x="27" y="15" width="3" height="9" fill="#155E75"/>
<rect x="30" y="24" width="3" height="9" fill="#155E75"/>
</g>
<defs>
<clipPath id="clip0_26_570">
<rect width="33" height="33" fill="white"/>
</clipPath>
</defs>
</svg>
