<svg width="33" height="33" viewBox="0 0 33 33" fill="none" xmlns="http://www.w3.org/2000/svg">
<g clip-path="url(#clip0_54_50)">
<rect x="15" y="15" width="3" height="3" fill="black"/>
<rect x="18" y="18" width="3" height="3" fill="black"/>
<rect x="21" y="21" width="3" height="3" fill="black"/>
<rect x="15" y="6" width="3" height="9" fill="black"/>
<rect x="12" width="9" height="3" fill="black"/>
<rect x="30" y="12" width="3" height="9" fill="black"/>
<rect x="12" y="30" width="9" height="3" fill="black"/>
<rect x="3" y="6" width="3" height="6" fill="black"/>
<rect x="3" y="21" width="3" height="6" fill="black"/>
<rect x="27" y="21" width="3" height="6" fill="black"/>
<rect x="27" y="6" width="3" height="6" fill="black"/>
<rect x="6" y="3" width="6" height="3" fill="black"/>
<rect x="6" y="27" width="6" height="3" fill="black"/>
<rect x="21" y="27" width="6" height="3" fill="black"/>
<rect x="21" y="3" width="6" height="3" fill="black"/>
<rect y="12" width="3" height="9" fill="black"/>
</g>
<defs>
<clipPath id="clip0_54_50">
<rect width="33" height="33" fill="white"/>
</clipPath>
</defs>
</svg>
