<svg width="125" height="28" viewBox="0 0 125 28" fill="none" xmlns="http://www.w3.org/2000/svg">
<g clip-path="url(#clip0_25_471)">
<g clip-path="url(#clip1_25_471)">
<g clip-path="url(#clip2_25_471)">
<rect y="16" width="2" height="2" fill="#052E16"/>
<rect x="2" y="18" width="2" height="2" fill="#052E16"/>
<rect x="4" y="20" width="2" height="2" fill="#052E16"/>
<rect x="6" y="22" width="2" height="2" fill="#052E16"/>
<rect x="8" y="24" width="2" height="2" fill="#052E16"/>
<rect x="10" y="26" width="2" height="2" fill="#052E16"/>
<rect width="2" height="2" transform="matrix(1 0 0 -1 14 26)" fill="#052E16"/>
<rect width="2" height="2" transform="matrix(1 0 0 -1 16 24)" fill="#052E16"/>
<rect width="2" height="2" transform="matrix(1 0 0 -1 18 24)" fill="#052E16"/>
<rect width="2" height="2" transform="matrix(1 0 0 -1 20 22)" fill="#052E16"/>
<rect width="2" height="2" transform="matrix(1 0 0 -1 22 22)" fill="#052E16"/>
<rect width="2" height="2" transform="matrix(1 0 0 -1 24 20)" fill="#052E16"/>
<rect width="2" height="2" transform="matrix(1 0 0 -1 26 20)" fill="#052E16"/>
<rect width="2" height="2" transform="matrix(1 0 0 -1 28 18)" fill="#052E16"/>
<rect width="2" height="2" transform="matrix(1 0 0 -1 30 18)" fill="#052E16"/>
<rect y="14" width="2" height="2" fill="#052E16"/>
<rect y="12" width="2" height="2" fill="#052E16"/>
<rect x="2" y="12" width="2" height="2" fill="#166534"/>
<rect x="2" y="14" width="2" height="2" fill="#B8B8B8"/>
<rect x="2" y="16" width="2" height="2" fill="white"/>
<rect x="4" y="18" width="2" height="2" fill="white"/>
<rect x="6" y="20" width="2" height="2" fill="white"/>
<rect x="8" y="22" width="2" height="2" fill="white"/>
<rect x="10" y="24" width="2" height="2" fill="white"/>
<rect x="12" y="24" width="2" height="2" fill="white"/>
<rect x="14" y="22" width="2" height="2" fill="white"/>
<rect x="18" y="20" width="2" height="2" fill="white"/>
<rect x="22" y="18" width="2" height="2" fill="white"/>
<rect x="26" y="16" width="2" height="2" fill="white"/>
<rect x="28" y="14" width="2" height="2" fill="white"/>
<rect x="4" y="16" width="2" height="2" fill="#B8B8B8"/>
<rect x="6" y="18" width="2" height="2" fill="#B8B8B8"/>
<rect x="8" y="20" width="2" height="2" fill="#B8B8B8"/>
<rect x="10" y="22" width="2" height="2" fill="#B8B8B8"/>
<rect x="12" y="22" width="2" height="2" fill="#B8B8B8"/>
<rect x="14" y="20" width="2" height="2" fill="#B8B8B8"/>
<rect x="16" y="20" width="2" height="2" fill="#B8B8B8"/>
<rect x="18" y="18" width="2" height="2" fill="#B8B8B8"/>
<rect x="20" y="18" width="2" height="2" fill="#B8B8B8"/>
<rect x="22" y="16" width="2" height="2" fill="#B8B8B8"/>
<rect x="24" y="16" width="2" height="2" fill="#B8B8B8"/>
<rect x="26" y="14" width="2" height="2" fill="#B8B8B8"/>
<rect x="30" y="12" width="2" height="2" fill="#B8B8B8"/>
<rect x="30" y="14" width="2" height="2" fill="#B8B8B8"/>
<rect x="4" y="14" width="2" height="2" fill="#166534"/>
<rect x="6" y="16" width="2" height="2" fill="#166534"/>
<rect x="8" y="18" width="2" height="2" fill="#166534"/>
<rect x="10" y="20" width="2" height="2" fill="#166534"/>
<rect x="12" y="20" width="2" height="2" fill="#166534"/>
<rect x="14" y="18" width="2" height="2" fill="#166534"/>
<rect x="16" y="18" width="2" height="2" fill="#166534"/>
<rect x="18" y="16" width="2" height="2" fill="#166534"/>
<rect x="20" y="16" width="2" height="2" fill="#166534"/>
<rect x="22" y="14" width="2" height="2" fill="#166534"/>
<rect x="24" y="14" width="2" height="2" fill="#166534"/>
<rect x="26" y="12" width="2" height="2" fill="#166534"/>
<rect x="28" y="12" width="2" height="2" fill="#166534"/>
<rect y="10" width="2" height="2" fill="#052E16"/>
<rect x="2" y="8" width="2" height="2" fill="#052E16"/>
<rect x="2" y="10" width="28" height="2" fill="#DCFCE7"/>
<rect x="4" y="12" width="22" height="2" fill="#DCFCE7"/>
<rect x="6" y="14" width="16" height="2" fill="#DCFCE7"/>
<rect x="18" y="2" width="4" height="2" fill="#DCFCE7"/>
<rect x="14" y="4" width="10" height="2" fill="#DCFCE7"/>
<rect x="8" y="6" width="18" height="2" fill="#DCFCE7"/>
<rect x="6" y="8" width="22" height="2" fill="#DCFCE7"/>
<rect x="8" y="16" width="10" height="2" fill="#DCFCE7"/>
<rect x="10" y="18" width="4" height="2" fill="#DCFCE7"/>
<rect x="4" y="8" width="2" height="2" fill="#052E16"/>
<rect x="6" y="6" width="2" height="2" fill="#052E16"/>
<rect x="8" y="6" width="2" height="2" fill="#052E16"/>
<rect x="10" y="4" width="2" height="2" fill="#052E16"/>
<rect x="12" y="4" width="2" height="2" fill="#052E16"/>
<rect x="14" y="2" width="2" height="2" fill="#052E16"/>
<rect x="16" y="2" width="2" height="2" fill="#052E16"/>
<rect x="18" width="2" height="2" fill="#052E16"/>
<rect x="20" width="2" height="2" fill="#052E16"/>
<rect x="22" y="2" width="2" height="2" fill="#052E16"/>
<rect x="24" y="4" width="2" height="2" fill="#052E16"/>
<rect x="26" y="6" width="2" height="2" fill="#052E16"/>
<rect x="28" y="8" width="2" height="2" fill="#052E16"/>
<rect x="30" y="10" width="2" height="2" fill="#052E16"/>
<rect x="18" y="6" width="2" height="2" fill="#FFAF1A"/>
<rect x="20" y="8" width="2" height="2" fill="#FFAF1A"/>
<rect x="22" y="10" width="2" height="2" fill="#FFAF1A"/>
<rect x="12" y="24" width="2" height="2" fill="#052E16"/>
</g>
</g>
<path d="M38.02 19.24V17.44H36.2V8.2H38.02V6.38H43.66V8.2H45.5V12H43.66V13.6H45.5V17.44H43.66V19.24H38.02ZM38.22 17.24H43.46V13.8H39.82V11.82H43.46V8.4H38.22V17.24ZM47.9188 19.24V10H49.9388V19.24H47.9188ZM47.9188 8.4V6.38H49.9388V8.4H47.9188ZM55.3669 19.24V17.44H53.5669V12H51.7469V10H53.5669V6.38H55.5669V10H61.0469V12H55.5669V17.24H60.8469V15.42H62.8669V17.44H61.0469V19.24H55.3669ZM65.282 19.24V8.2H67.102V6.38H72.742V8.2H74.582V13.8H72.742V15.62H71.862V17.24H73.662V19.24H71.662V17.44H69.822V15.62H67.302V19.24H65.282ZM67.302 13.6H72.542V8.4H67.302V13.6ZM78.8208 19.24V17.44H77.0008V11.82H78.8208V10H84.4608V11.82H86.3008V13.8H84.2608V12H79.0208V13.6H82.6608V15.62H79.0208V17.24H84.2608V15.4H86.3008V17.42H84.4608V19.24H78.8208ZM90.5395 19.24V17.44H88.7195V11.82H90.5395V10H96.1795V11.82H98.0195V17.24H99.8395V19.24H97.8195V17.44H96.1795V19.24H90.5395ZM90.7395 17.24H95.9795V12H90.7395V17.24ZM103.079 19.24V17.44H101.259V11.82H103.079V10H108.539V6.38H110.559V17.44H108.719V19.24H103.079ZM103.279 17.24H108.519V12H103.279V17.24ZM112.587 19.24V17.24H119.847V15.62H114.407V13.8H112.587V11.82H114.407V10H121.887V12H114.607V13.6H120.047V15.42H121.887V17.44H120.047V19.24H112.587Z" fill="#052E16"/>
</g>
<defs>
<clipPath id="clip0_25_471">
<rect width="125" height="28" fill="white"/>
</clipPath>
<clipPath id="clip1_25_471">
<rect width="32" height="28" fill="white"/>
</clipPath>
<clipPath id="clip2_25_471">
<rect width="32" height="28" fill="white"/>
</clipPath>
</defs>
</svg>
