<svg width="57" height="81" viewBox="0 0 57 81" fill="none" xmlns="http://www.w3.org/2000/svg">
<g clip-path="url(#clip0_47_4)">
<rect width="57" height="3" fill="black"/>
<rect x="54" y="3" width="3" height="27" fill="black"/>
<rect y="3" width="3" height="33" fill="black"/>
<rect x="54" y="48" width="3" height="30" fill="black"/>
<rect y="45" width="3" height="33" fill="black"/>
<rect x="3" y="30" width="3" height="3" fill="black"/>
<rect x="3" y="42" width="3" height="3" fill="black"/>
<rect x="6" y="27" width="3" height="3" fill="black"/>
<rect x="6" y="39" width="3" height="3" fill="black"/>
<rect x="9" y="30" width="3" height="3" fill="black"/>
<rect x="9" y="42" width="3" height="3" fill="black"/>
<rect x="12" y="33" width="3" height="3" fill="black"/>
<rect x="12" y="45" width="3" height="3" fill="black"/>
<rect x="27" y="54" width="3" height="3" fill="black"/>
<rect x="24" y="57" width="3" height="3" fill="black"/>
<rect x="21" y="60" width="3" height="3" fill="black"/>
<rect x="30" y="57" width="3" height="3" fill="black"/>
<rect x="33" y="60" width="3" height="3" fill="black"/>
<rect x="39" y="54" width="9" height="3" fill="black"/>
<rect x="9" y="54" width="9" height="3" fill="black"/>
<rect x="15" y="30" width="3" height="3" fill="black"/>
<rect x="15" y="42" width="3" height="3" fill="black"/>
<rect x="18" y="27" width="3" height="3" fill="black"/>
<rect x="18" y="39" width="3" height="3" fill="black"/>
<rect x="21" y="30" width="3" height="3" fill="black"/>
<rect x="21" y="42" width="3" height="3" fill="black"/>
<rect x="24" y="33" width="3" height="3" fill="black"/>
<rect x="24" y="45" width="3" height="3" fill="black"/>
<rect x="27" y="30" width="3" height="3" fill="black"/>
<rect x="27" y="42" width="3" height="3" fill="black"/>
<rect x="30" y="27" width="3" height="3" fill="black"/>
<rect x="30" y="39" width="3" height="3" fill="black"/>
<rect x="33" y="30" width="3" height="3" fill="black"/>
<rect x="33" y="42" width="3" height="3" fill="black"/>
<rect x="36" y="33" width="3" height="3" fill="black"/>
<rect x="36" y="45" width="3" height="3" fill="black"/>
<rect x="39" y="30" width="3" height="3" fill="black"/>
<rect x="39" y="42" width="3" height="3" fill="black"/>
<rect x="42" y="27" width="3" height="3" fill="black"/>
<rect x="42" y="39" width="3" height="3" fill="black"/>
<rect x="45" y="30" width="3" height="3" fill="black"/>
<rect x="45" y="42" width="3" height="3" fill="black"/>
<rect x="48" y="33" width="3" height="3" fill="black"/>
<rect x="48" y="45" width="3" height="3" fill="black"/>
<rect x="51" y="30" width="3" height="3" fill="black"/>
<rect x="51" y="42" width="3" height="3" fill="black"/>
<rect x="54" y="40" width="3" height="8" fill="black"/>
<rect y="78" width="57" height="3" fill="black"/>
</g>
<defs>
<clipPath id="clip0_47_4">
<rect width="57" height="81" fill="white"/>
</clipPath>
</defs>
</svg>
