<svg width="125" height="28" viewBox="0 0 125 28" fill="none" xmlns="http://www.w3.org/2000/svg">
<g clip-path="url(#clip0_2_163)">
<g clip-path="url(#clip1_2_163)">
<rect y="16" width="2" height="2" fill="#083344"/>
<rect x="2" y="18" width="2" height="2" fill="#083344"/>
<rect x="4" y="20" width="2" height="2" fill="#083344"/>
<rect x="6" y="22" width="2" height="2" fill="#083344"/>
<rect x="8" y="24" width="2" height="2" fill="#083344"/>
<rect x="10" y="26" width="2" height="2" fill="#083344"/>
<rect width="2" height="2" transform="matrix(1 0 0 -1 14 26)" fill="#083344"/>
<rect width="2" height="2" transform="matrix(1 0 0 -1 16 24)" fill="#083344"/>
<rect width="2" height="2" transform="matrix(1 0 0 -1 18 24)" fill="#083344"/>
<rect width="2" height="2" transform="matrix(1 0 0 -1 20 22)" fill="#083344"/>
<rect width="2" height="2" transform="matrix(1 0 0 -1 22 22)" fill="#083344"/>
<rect width="2" height="2" transform="matrix(1 0 0 -1 24 20)" fill="#083344"/>
<rect width="2" height="2" transform="matrix(1 0 0 -1 26 20)" fill="#083344"/>
<rect width="2" height="2" transform="matrix(1 0 0 -1 28 18)" fill="#083344"/>
<rect width="2" height="2" transform="matrix(1 0 0 -1 30 18)" fill="#083344"/>
<rect y="14" width="2" height="2" fill="#083344"/>
<rect y="12" width="2" height="2" fill="#083344"/>
<rect x="2" y="12" width="2" height="2" fill="#155E75"/>
<rect x="2" y="14" width="2" height="2" fill="#B8B8B8"/>
<rect x="2" y="16" width="2" height="2" fill="white"/>
<rect x="4" y="18" width="2" height="2" fill="white"/>
<rect x="6" y="20" width="2" height="2" fill="white"/>
<rect x="8" y="22" width="2" height="2" fill="white"/>
<rect x="10" y="24" width="2" height="2" fill="white"/>
<rect x="12" y="24" width="2" height="2" fill="white"/>
<rect x="14" y="22" width="2" height="2" fill="white"/>
<rect x="18" y="20" width="2" height="2" fill="white"/>
<rect x="22" y="18" width="2" height="2" fill="white"/>
<rect x="26" y="16" width="2" height="2" fill="white"/>
<rect x="28" y="14" width="2" height="2" fill="white"/>
<rect x="4" y="16" width="2" height="2" fill="#B8B8B8"/>
<rect x="6" y="18" width="2" height="2" fill="#B8B8B8"/>
<rect x="8" y="20" width="2" height="2" fill="#B8B8B8"/>
<rect x="10" y="22" width="2" height="2" fill="#B8B8B8"/>
<rect x="12" y="22" width="2" height="2" fill="#B8B8B8"/>
<rect x="14" y="20" width="2" height="2" fill="#B8B8B8"/>
<rect x="16" y="20" width="2" height="2" fill="#B8B8B8"/>
<rect x="18" y="18" width="2" height="2" fill="#B8B8B8"/>
<rect x="20" y="18" width="2" height="2" fill="#B8B8B8"/>
<rect x="22" y="16" width="2" height="2" fill="#B8B8B8"/>
<rect x="24" y="16" width="2" height="2" fill="#B8B8B8"/>
<rect x="26" y="14" width="2" height="2" fill="#B8B8B8"/>
<rect x="30" y="12" width="2" height="2" fill="#B8B8B8"/>
<rect x="30" y="14" width="2" height="2" fill="#B8B8B8"/>
<rect x="4" y="14" width="2" height="2" fill="#155E75"/>
<rect x="6" y="16" width="2" height="2" fill="#155E75"/>
<rect x="8" y="18" width="2" height="2" fill="#155E75"/>
<rect x="10" y="20" width="2" height="2" fill="#155E75"/>
<rect x="12" y="20" width="2" height="2" fill="#155E75"/>
<rect x="14" y="18" width="2" height="2" fill="#155E75"/>
<rect x="16" y="18" width="2" height="2" fill="#155E75"/>
<rect x="18" y="16" width="2" height="2" fill="#155E75"/>
<rect x="20" y="16" width="2" height="2" fill="#155E75"/>
<rect x="22" y="14" width="2" height="2" fill="#155E75"/>
<rect x="24" y="14" width="2" height="2" fill="#155E75"/>
<rect x="26" y="12" width="2" height="2" fill="#155E75"/>
<rect x="28" y="12" width="2" height="2" fill="#155E75"/>
<rect y="10" width="2" height="2" fill="#083344"/>
<rect x="2" y="8" width="2" height="2" fill="#083344"/>
<rect x="2" y="10" width="28" height="2" fill="#CFFAFE"/>
<rect x="4" y="12" width="22" height="2" fill="#CFFAFE"/>
<rect x="6" y="14" width="16" height="2" fill="#CFFAFE"/>
<rect x="18" y="2" width="4" height="2" fill="#CFFAFE"/>
<rect x="14" y="4" width="10" height="2" fill="#CFFAFE"/>
<rect x="8" y="6" width="18" height="2" fill="#CFFAFE"/>
<rect x="6" y="8" width="22" height="2" fill="#CFFAFE"/>
<rect x="8" y="16" width="10" height="2" fill="#CFFAFE"/>
<rect x="10" y="18" width="4" height="2" fill="#CFFAFE"/>
<rect x="4" y="8" width="2" height="2" fill="#083344"/>
<rect x="6" y="6" width="2" height="2" fill="#083344"/>
<rect x="8" y="6" width="2" height="2" fill="#083344"/>
<rect x="10" y="4" width="2" height="2" fill="#083344"/>
<rect x="12" y="4" width="2" height="2" fill="#083344"/>
<rect x="14" y="2" width="2" height="2" fill="#083344"/>
<rect x="16" y="2" width="2" height="2" fill="#083344"/>
<rect x="18" width="2" height="2" fill="#083344"/>
<rect x="20" width="2" height="2" fill="#083344"/>
<rect x="22" y="2" width="2" height="2" fill="#083344"/>
<rect x="24" y="4" width="2" height="2" fill="#083344"/>
<rect x="26" y="6" width="2" height="2" fill="#083344"/>
<rect x="28" y="8" width="2" height="2" fill="#083344"/>
<rect x="30" y="10" width="2" height="2" fill="#083344"/>
<rect x="18" y="6" width="2" height="2" fill="#FFAF1A"/>
<rect x="20" y="8" width="2" height="2" fill="#FFAF1A"/>
<rect x="22" y="10" width="2" height="2" fill="#FFAF1A"/>
<rect x="12" y="24" width="2" height="2" fill="#083344"/>
</g>
</g>
<path d="M38.02 20.24V18.44H36.2V9.2H38.02V7.38H43.66V9.2H45.5V13H43.66V14.6H45.5V18.44H43.66V20.24H38.02ZM38.22 18.24H43.46V14.8H39.82V12.82H43.46V9.4H38.22V18.24ZM47.9188 20.24V11H49.9388V20.24H47.9188ZM47.9188 9.4V7.38H49.9388V9.4H47.9188ZM55.3669 20.24V18.44H53.5669V13H51.7469V11H53.5669V7.38H55.5669V11H61.0469V13H55.5669V18.24H60.8469V16.42H62.8669V18.44H61.0469V20.24H55.3669ZM65.282 20.24V9.2H67.102V7.38H72.742V9.2H74.582V14.8H72.742V16.62H71.862V18.24H73.662V20.24H71.662V18.44H69.822V16.62H67.302V20.24H65.282ZM67.302 14.6H72.542V9.4H67.302V14.6ZM78.8208 20.24V18.44H77.0008V12.82H78.8208V11H84.4608V12.82H86.3008V14.8H84.2608V13H79.0208V14.6H82.6608V16.62H79.0208V18.24H84.2608V16.4H86.3008V18.42H84.4608V20.24H78.8208ZM90.5395 20.24V18.44H88.7195V12.82H90.5395V11H96.1795V12.82H98.0195V18.24H99.8395V20.24H97.8195V18.44H96.1795V20.24H90.5395ZM90.7395 18.24H95.9795V13H90.7395V18.24ZM103.079 20.24V18.44H101.259V12.82H103.079V11H108.539V7.38H110.559V18.44H108.719V20.24H103.079ZM103.279 18.24H108.519V13H103.279V18.24ZM112.587 20.24V18.24H119.847V16.62H114.407V14.8H112.587V12.82H114.407V11H121.887V13H114.607V14.6H120.047V16.42H121.887V18.44H120.047V20.24H112.587Z" fill="#083344"/>
<defs>
<clipPath id="clip0_2_163">
<rect width="32" height="28" fill="white"/>
</clipPath>
<clipPath id="clip1_2_163">
<rect width="32" height="28" fill="white"/>
</clipPath>
</defs>
</svg>
