<svg width="32" height="28" viewBox="0 0 32 28" fill="none" xmlns="http://www.w3.org/2000/svg">
<g clip-path="url(#clip0_4_3)">
<rect y="16" width="2" height="2" fill="#083344"/>
<rect x="2" y="18" width="2" height="2" fill="#083344"/>
<rect x="4" y="20" width="2" height="2" fill="#083344"/>
<rect x="6" y="22" width="2" height="2" fill="#083344"/>
<rect x="8" y="24" width="2" height="2" fill="#083344"/>
<rect x="10" y="26" width="2" height="2" fill="#083344"/>
<rect width="2" height="2" transform="matrix(1 0 0 -1 14 26)" fill="#083344"/>
<rect width="2" height="2" transform="matrix(1 0 0 -1 16 24)" fill="#083344"/>
<rect width="2" height="2" transform="matrix(1 0 0 -1 18 24)" fill="#083344"/>
<rect width="2" height="2" transform="matrix(1 0 0 -1 20 22)" fill="#083344"/>
<rect width="2" height="2" transform="matrix(1 0 0 -1 22 22)" fill="#083344"/>
<rect width="2" height="2" transform="matrix(1 0 0 -1 24 20)" fill="#083344"/>
<rect width="2" height="2" transform="matrix(1 0 0 -1 26 20)" fill="#083344"/>
<rect width="2" height="2" transform="matrix(1 0 0 -1 28 18)" fill="#083344"/>
<rect width="2" height="2" transform="matrix(1 0 0 -1 30 18)" fill="#083344"/>
<rect y="14" width="2" height="2" fill="#083344"/>
<rect y="12" width="2" height="2" fill="#083344"/>
<rect x="2" y="12" width="2" height="2" fill="#155E75"/>
<rect x="2" y="14" width="2" height="2" fill="#B8B8B8"/>
<rect x="2" y="16" width="2" height="2" fill="white"/>
<rect x="4" y="18" width="2" height="2" fill="white"/>
<rect x="6" y="20" width="2" height="2" fill="white"/>
<rect x="8" y="22" width="2" height="2" fill="white"/>
<rect x="10" y="24" width="2" height="2" fill="white"/>
<rect x="12" y="24" width="2" height="2" fill="white"/>
<rect x="14" y="22" width="2" height="2" fill="white"/>
<rect x="18" y="20" width="2" height="2" fill="white"/>
<rect x="22" y="18" width="2" height="2" fill="white"/>
<rect x="26" y="16" width="2" height="2" fill="white"/>
<rect x="28" y="14" width="2" height="2" fill="white"/>
<rect x="4" y="16" width="2" height="2" fill="#B8B8B8"/>
<rect x="6" y="18" width="2" height="2" fill="#B8B8B8"/>
<rect x="8" y="20" width="2" height="2" fill="#B8B8B8"/>
<rect x="10" y="22" width="2" height="2" fill="#B8B8B8"/>
<rect x="12" y="22" width="2" height="2" fill="#B8B8B8"/>
<rect x="14" y="20" width="2" height="2" fill="#B8B8B8"/>
<rect x="16" y="20" width="2" height="2" fill="#B8B8B8"/>
<rect x="18" y="18" width="2" height="2" fill="#B8B8B8"/>
<rect x="20" y="18" width="2" height="2" fill="#B8B8B8"/>
<rect x="22" y="16" width="2" height="2" fill="#B8B8B8"/>
<rect x="24" y="16" width="2" height="2" fill="#B8B8B8"/>
<rect x="26" y="14" width="2" height="2" fill="#B8B8B8"/>
<rect x="30" y="12" width="2" height="2" fill="#B8B8B8"/>
<rect x="30" y="14" width="2" height="2" fill="#B8B8B8"/>
<rect x="4" y="14" width="2" height="2" fill="#155E75"/>
<rect x="6" y="16" width="2" height="2" fill="#155E75"/>
<rect x="8" y="18" width="2" height="2" fill="#155E75"/>
<rect x="10" y="20" width="2" height="2" fill="#155E75"/>
<rect x="12" y="20" width="2" height="2" fill="#155E75"/>
<rect x="14" y="18" width="2" height="2" fill="#155E75"/>
<rect x="16" y="18" width="2" height="2" fill="#155E75"/>
<rect x="18" y="16" width="2" height="2" fill="#155E75"/>
<rect x="20" y="16" width="2" height="2" fill="#155E75"/>
<rect x="22" y="14" width="2" height="2" fill="#155E75"/>
<rect x="24" y="14" width="2" height="2" fill="#155E75"/>
<rect x="26" y="12" width="2" height="2" fill="#155E75"/>
<rect x="28" y="12" width="2" height="2" fill="#155E75"/>
<rect y="10" width="2" height="2" fill="#083344"/>
<rect x="2" y="8" width="2" height="2" fill="#083344"/>
<rect x="2" y="10" width="28" height="2" fill="#CFFAFE"/>
<rect x="4" y="12" width="22" height="2" fill="#CFFAFE"/>
<rect x="6" y="14" width="16" height="2" fill="#CFFAFE"/>
<rect x="18" y="2" width="4" height="2" fill="#CFFAFE"/>
<rect x="14" y="4" width="10" height="2" fill="#CFFAFE"/>
<rect x="8" y="6" width="18" height="2" fill="#CFFAFE"/>
<rect x="6" y="8" width="22" height="2" fill="#CFFAFE"/>
<rect x="8" y="16" width="10" height="2" fill="#CFFAFE"/>
<rect x="10" y="18" width="4" height="2" fill="#CFFAFE"/>
<rect x="4" y="8" width="2" height="2" fill="#083344"/>
<rect x="6" y="6" width="2" height="2" fill="#083344"/>
<rect x="8" y="6" width="2" height="2" fill="#083344"/>
<rect x="10" y="4" width="2" height="2" fill="#083344"/>
<rect x="12" y="4" width="2" height="2" fill="#083344"/>
<rect x="14" y="2" width="2" height="2" fill="#083344"/>
<rect x="16" y="2" width="2" height="2" fill="#083344"/>
<rect x="18" width="2" height="2" fill="#083344"/>
<rect x="20" width="2" height="2" fill="#083344"/>
<rect x="22" y="2" width="2" height="2" fill="#083344"/>
<rect x="24" y="4" width="2" height="2" fill="#083344"/>
<rect x="26" y="6" width="2" height="2" fill="#083344"/>
<rect x="28" y="8" width="2" height="2" fill="#083344"/>
<rect x="30" y="10" width="2" height="2" fill="#083344"/>
<rect x="18" y="6" width="2" height="2" fill="#FFAF1A"/>
<rect x="20" y="8" width="2" height="2" fill="#FFAF1A"/>
<rect x="22" y="10" width="2" height="2" fill="#FFAF1A"/>
<rect x="12" y="24" width="2" height="2" fill="#083344"/>
</g>
<defs>
<clipPath id="clip0_4_3">
<rect width="32" height="28" fill="white"/>
</clipPath>
</defs>
</svg>
